<svg width="26" height="20" viewBox="0 0 26 20" fill="none" xmlns="http://www.w3.org/2000/svg">
<g clip-path="url(#clip0_92_2599)">
<path fill-rule="evenodd" clip-rule="evenodd" d="M0 0H37.0504V1.53848H0V0ZM0 3.07695H37.0504V4.61543H0V3.07695ZM0 6.15391H37.0504V7.69238H0V6.15391ZM0 9.23086H37.0504V10.7693H0V9.23086ZM0 12.3078H37.0504V13.8463H0V12.3078ZM0 15.3848H37.0504V16.9232H0V15.3848ZM0 18.4617H37.0504V20.0002H0V18.4617Z" fill="#BD3D44"/>
<path fill-rule="evenodd" clip-rule="evenodd" d="M0 1.53845H37.0504V3.07693H0V1.53845ZM0 4.61541H37.0504V6.15388H0V4.61541ZM0 7.69236H37.0504V9.23084H0V7.69236ZM0 10.7693H37.0504V12.3078H0V10.7693ZM0 13.8463H37.0504V15.3847H0V13.8463ZM0 16.9232H37.0504V18.4617H0V16.9232Z" fill="white"/>
<path fill-rule="evenodd" clip-rule="evenodd" d="M0 0H14.82V10.7691H0V0Z" fill="#192F5D"/>
<path fill-rule="evenodd" clip-rule="evenodd" d="M1.23503 0.460938L1.36986 0.886562H1.80624L1.45319 1.14965L1.58805 1.57527L1.23499 1.31223L0.882013 1.57527L1.01684 1.14965L0.663818 0.886562H1.10017L1.23503 0.460938ZM3.70502 0.460938L3.83988 0.886562H4.27627L3.92321 1.14965L4.05808 1.57527L3.70502 1.31223L3.35204 1.57527L3.48686 1.14965L3.13384 0.886562H3.57019L3.70502 0.460938ZM6.17512 0.460938L6.30994 0.886562H6.74633L6.39328 1.14965L6.52814 1.57527L6.17512 1.31223L5.8221 1.57527L5.95693 1.14965L5.60391 0.886562H6.0403L6.17512 0.460938ZM8.64507 0.460938L8.77989 0.886562H9.21624L8.86323 1.14965L8.99805 1.57527L8.64507 1.31223L8.29201 1.57527L8.42688 1.14965L8.07382 0.886562H8.51021L8.64507 0.460938ZM11.1151 0.460938L11.25 0.886562H11.6863L11.3333 1.14965L11.4682 1.57527L11.1151 1.31223L10.7621 1.57527L10.8969 1.14965L10.5439 0.886562H10.9803L11.1151 0.460938ZM13.5852 0.460938L13.72 0.886562H14.1564L13.8034 1.14965L13.9382 1.57527L13.5852 1.31223L13.2321 1.57527L13.367 1.14965L13.014 0.886562H13.4504L13.5852 0.460938ZM2.47008 1.53789L2.60491 1.96352H3.04129L2.68824 2.22656L2.82314 2.65223L2.47008 2.38918L2.11706 2.65223L2.25189 2.22656L1.89887 1.96352H2.33526L2.47008 1.53789ZM4.94003 1.53789L5.07486 1.96352H5.51121L5.15819 2.22656L5.29301 2.65223L4.94003 2.38918L4.58697 2.65223L4.72184 2.22656L4.36878 1.96352H4.80517L4.94003 1.53789ZM7.41009 1.53789L7.54492 1.96352H7.98131L7.62825 2.22656L7.76311 2.65223L7.41006 2.38918L7.05708 2.65223L7.1919 2.22656L6.83888 1.96352H7.27523L7.41009 1.53789ZM9.88016 1.53789L10.015 1.96352H10.4514L10.0983 2.22656L10.2332 2.65223L9.88016 2.38918L9.5271 2.65223L9.66204 2.22656L9.30898 1.96352H9.74537L9.88016 1.53789ZM12.3501 1.53789L12.4849 1.96352H12.9213L12.5683 2.22656L12.7031 2.65223L12.3501 2.38918L11.9971 2.65223L12.1319 2.22656L11.7789 1.96352H12.2152L12.3501 1.53789ZM1.23503 2.6148L1.36986 3.04043H1.80624L1.45319 3.30351L1.58805 3.72914L1.23499 3.46609L0.882013 3.72914L1.01684 3.30351L0.663818 3.04043H1.10017L1.23503 2.6148ZM3.70502 2.6148L3.83988 3.04043H4.27627L3.92321 3.30351L4.05808 3.72914L3.70502 3.46609L3.35204 3.72914L3.48686 3.30351L3.13384 3.04043H3.57019L3.70502 2.6148ZM6.17512 2.6148L6.30994 3.04043H6.74633L6.39328 3.30351L6.52814 3.72914L6.17512 3.46609L5.8221 3.72914L5.95693 3.30351L5.60391 3.04043H6.0403L6.17512 2.6148ZM8.64507 2.6148L8.77989 3.04043H9.21624L8.86323 3.30351L8.99805 3.72914L8.64507 3.46609L8.29201 3.72914L8.42688 3.30351L8.07382 3.04043H8.51021L8.64507 2.6148ZM11.1151 2.6148L11.25 3.04043H11.6863L11.3333 3.30351L11.4682 3.72914L11.1151 3.46609L10.7621 3.72914L10.8969 3.30351L10.5439 3.04043H10.9803L11.1151 2.6148ZM13.5852 2.6148L13.72 3.04043H14.1564L13.8034 3.30351L13.9382 3.72914L13.5852 3.46609L13.2321 3.72914L13.367 3.30351L13.014 3.04043H13.4504L13.5852 2.6148ZM2.47008 3.69172L2.60491 4.11738H3.04129L2.68824 4.38043L2.82314 4.80609L2.47008 4.54305L2.11706 4.80609L2.25189 4.38043L1.89887 4.11738H2.33526L2.47008 3.69172ZM4.94003 3.69172L5.07486 4.11738H5.51121L5.15819 4.38043L5.29301 4.80609L4.94003 4.54305L4.58697 4.80609L4.72184 4.38043L4.36878 4.11738H4.80517L4.94003 3.69172ZM7.41009 3.69172L7.54492 4.11738H7.98131L7.62825 4.38043L7.76311 4.80609L7.41006 4.54305L7.05708 4.80609L7.1919 4.38043L6.83888 4.11738H7.27523L7.41009 3.69172ZM9.88016 3.69172L10.015 4.11738H10.4514L10.0983 4.38043L10.2332 4.80609L9.88016 4.54305L9.5271 4.80609L9.662 4.38043L9.30895 4.11738H9.74533L9.88016 3.69172ZM12.3501 3.69172L12.4849 4.11738H12.9213L12.5683 4.38043L12.7031 4.80609L12.3501 4.54305L11.9971 4.80609L12.1319 4.38043L11.7789 4.11738H12.2152L12.3501 3.69172ZM1.23503 4.76867L1.36986 5.1943H1.80624L1.45319 5.45738L1.58805 5.88301L1.23499 5.61996L0.882013 5.88301L1.01684 5.45738L0.663818 5.1943H1.10017L1.23503 4.76867ZM3.70502 4.76867L3.83988 5.1943H4.27627L3.92321 5.45738L4.05808 5.88301L3.70502 5.61996L3.35204 5.88301L3.48686 5.45738L3.13384 5.1943H3.57019L3.70502 4.76867ZM6.17512 4.76867L6.30994 5.1943H6.74633L6.39328 5.45738L6.52814 5.88301L6.17512 5.61996L5.8221 5.88301L5.95693 5.45738L5.60391 5.1943H6.0403L6.17512 4.76867ZM8.64507 4.76867L8.77989 5.1943H9.21624L8.86323 5.45738L8.99805 5.88301L8.64507 5.61996L8.29201 5.88301L8.42688 5.45738L8.07382 5.1943H8.51021L8.64507 4.76867ZM11.1151 4.76867L11.25 5.1943H11.6863L11.3333 5.45738L11.4682 5.88301L11.1151 5.61996L10.7621 5.88301L10.8969 5.45738L10.5439 5.1943H10.9803L11.1151 4.76867ZM13.5852 4.76867L13.72 5.1943H14.1564L13.8034 5.45738L13.9382 5.88301L13.5852 5.61996L13.2321 5.88301L13.367 5.45738L13.014 5.1943H13.4504L13.5852 4.76867ZM2.47008 5.84558L2.60491 6.27125H3.04129L2.68824 6.5343L2.82314 6.95996L2.47008 6.69691L2.11706 6.95996L2.25189 6.5343L1.89887 6.27125H2.33526L2.47008 5.84558ZM4.94003 5.84558L5.07486 6.27125H5.51121L5.15819 6.5343L5.29301 6.95996L4.94003 6.69691L4.58697 6.95996L4.72184 6.5343L4.36878 6.27125H4.80517L4.94003 5.84558ZM7.41009 5.84558L7.54492 6.27125H7.98131L7.62825 6.5343L7.76311 6.95996L7.41006 6.69691L7.05708 6.95996L7.1919 6.5343L6.83888 6.27125H7.27523L7.41009 5.84558ZM9.88016 5.84558L10.015 6.27125H10.4514L10.0983 6.5343L10.2332 6.95996L9.88016 6.69691L9.5271 6.95996L9.662 6.5343L9.30895 6.27125H9.74533L9.88016 5.84558ZM12.3501 5.84558L12.4849 6.27125H12.9213L12.5683 6.5343L12.7031 6.95996L12.3501 6.69691L11.9971 6.95996L12.1319 6.5343L11.7789 6.27125H12.2152L12.3501 5.84558Z" fill="white"/>
<path fill-rule="evenodd" clip-rule="evenodd" d="M1.23503 6.92261L1.36986 7.34823H1.80624L1.45319 7.61132L1.58805 8.03694L1.23499 7.7739L0.882013 8.03694L1.01684 7.61132L0.663818 7.34823H1.10017L1.23503 6.92261ZM3.70502 6.92261L3.83988 7.34823H4.27627L3.92321 7.61132L4.05808 8.03694L3.70502 7.7739L3.35204 8.03694L3.48686 7.61132L3.13384 7.34823H3.57019L3.70502 6.92261ZM6.17512 6.92261L6.30994 7.34823H6.74633L6.39328 7.61132L6.52814 8.03694L6.17512 7.7739L5.8221 8.03694L5.95693 7.61132L5.60391 7.34823H6.0403L6.17512 6.92261ZM8.64507 6.92261L8.77989 7.34823H9.21624L8.86323 7.61132L8.99805 8.03694L8.64507 7.7739L8.29201 8.03694L8.42688 7.61132L8.07382 7.34823H8.51021L8.64507 6.92261ZM11.1151 6.92261L11.25 7.34823H11.6863L11.3333 7.61132L11.4682 8.03694L11.1151 7.7739L10.7621 8.03694L10.8969 7.61132L10.5439 7.34823H10.9803L11.1151 6.92261ZM13.5852 6.92261L13.72 7.34823H14.1564L13.8034 7.61132L13.9382 8.03694L13.5852 7.7739L13.2321 8.03694L13.367 7.61132L13.014 7.34823H13.4504L13.5852 6.92261ZM2.47008 7.99952L2.60491 8.42518H3.04129L2.68824 8.68823L2.82314 9.11389L2.47008 8.85085L2.11706 9.11389L2.25189 8.68823L1.89887 8.42518H2.33526L2.47008 7.99952ZM4.94003 7.99952L5.07486 8.42518H5.51121L5.15819 8.68823L5.29301 9.11389L4.94003 8.85085L4.58697 9.11389L4.72184 8.68823L4.36878 8.42518H4.80517L4.94003 7.99952ZM7.41009 7.99952L7.54492 8.42518H7.98131L7.62825 8.68823L7.76311 9.11389L7.41006 8.85085L7.05708 9.11389L7.1919 8.68823L6.83888 8.42518H7.27523L7.41009 7.99952ZM9.88016 7.99952L10.015 8.42518H10.4514L10.0983 8.68823L10.2332 9.11389L9.88016 8.85085L9.5271 9.11389L9.662 8.68823L9.30895 8.42518H9.74533L9.88016 7.99952ZM12.3501 7.99952L12.4849 8.42518H12.9213L12.5683 8.68823L12.7031 9.11389L12.3501 8.85085L11.9971 9.11389L12.1319 8.68823L11.7789 8.42518H12.2152L12.3501 7.99952Z" fill="white"/>
<path fill-rule="evenodd" clip-rule="evenodd" d="M1.23503 9.07642L1.36986 9.50204H1.80624L1.45319 9.76513L1.58805 10.1907L1.23499 9.9277L0.882013 10.1907L1.01684 9.76513L0.663818 9.50204H1.10017L1.23503 9.07642ZM3.70502 9.07642L3.83988 9.50204H4.27627L3.92321 9.76513L4.05808 10.1907L3.70502 9.9277L3.35204 10.1907L3.48686 9.76513L3.13384 9.50204H3.57019L3.70502 9.07642ZM6.17512 9.07642L6.30994 9.50204H6.74633L6.39328 9.76513L6.52814 10.1907L6.17512 9.9277L5.8221 10.1907L5.95693 9.76513L5.60391 9.50204H6.0403L6.17512 9.07642ZM8.64507 9.07642L8.77989 9.50204H9.21624L8.86323 9.76513L8.99805 10.1907L8.64507 9.9277L8.29201 10.1907L8.42688 9.76513L8.07382 9.50204H8.51021L8.64507 9.07642ZM11.1151 9.07642L11.25 9.50204H11.6863L11.3333 9.76513L11.4682 10.1907L11.1151 9.9277L10.7621 10.1907L10.8969 9.76513L10.5439 9.50204H10.9803L11.1151 9.07642ZM13.5852 9.07642L13.72 9.50204H14.1564L13.8034 9.76513L13.9382 10.1907L13.5852 9.9277L13.2321 10.1907L13.367 9.76513L13.014 9.50204H13.4504L13.5852 9.07642Z" fill="white"/>
</g>
<defs>
<clipPath id="clip0_92_2599">
<rect width="26" height="20" fill="white"/>
</clipPath>
</defs>
</svg>
