<svg width="17" height="16" viewBox="0 0 17 16" fill="none" xmlns="http://www.w3.org/2000/svg">
<path fill-rule="evenodd" clip-rule="evenodd" d="M13.8057 2.67206C12.4024 1.26709 10.5361 0.493011 8.54784 0.492188C4.45086 0.492188 1.11651 3.82645 1.11486 7.92453C1.11431 9.23456 1.45654 10.5134 2.10702 11.6406L1.05251 15.4922L4.99285 14.4586C6.07857 15.0508 7.3009 15.3629 8.54482 15.3633H8.54794C12.6445 15.3633 15.9792 12.0287 15.9807 7.93048C15.9816 5.94433 15.2091 4.07693 13.8057 2.67206ZM8.54784 14.108H8.54528C7.43676 14.1075 6.34957 13.8096 5.4009 13.2469L5.17541 13.1129L2.83715 13.7263L3.46127 11.4466L3.31432 11.2128C2.69588 10.2292 2.36932 9.09228 2.36987 7.92499C2.37115 4.51877 5.14263 1.74756 8.55032 1.74756C10.2005 1.74811 11.7516 2.39154 12.918 3.5593C14.0844 4.72705 14.7264 6.27923 14.7258 7.93002C14.7244 11.3365 11.9531 14.108 8.54784 14.108ZM11.9366 9.48102C11.7509 9.388 10.8378 8.93884 10.6675 8.87677C10.4974 8.81479 10.3734 8.78393 10.2497 8.96979C10.1258 9.15564 9.76998 9.57403 9.66158 9.6979C9.55318 9.82187 9.44497 9.83743 9.25921 9.74441C9.07345 9.65149 8.47506 9.45529 7.76562 8.82257C7.21355 8.33011 6.84084 7.72192 6.73244 7.53607C6.62423 7.35004 6.73153 7.25922 6.81393 7.15704C7.01498 6.90738 7.2163 6.64563 7.27819 6.52176C7.34017 6.3978 7.30913 6.28931 7.26263 6.19638C7.2163 6.10345 6.84487 5.1893 6.69015 4.81732C6.53927 4.45532 6.38628 4.50421 6.27221 4.49853C6.16399 4.49313 6.04012 4.49203 5.91625 4.49203C5.79247 4.49203 5.59124 4.53845 5.42095 4.72449C5.25075 4.91043 4.77102 5.35968 4.77102 6.27383C4.77102 7.18799 5.43652 8.0711 5.52935 8.19507C5.62218 8.31903 6.83901 10.1949 8.70202 10.9993C9.14513 11.1909 9.49102 11.305 9.76083 11.3906C10.2058 11.532 10.6105 11.512 10.9306 11.4642C11.2875 11.4109 12.0293 11.0149 12.1842 10.5811C12.339 10.1472 12.339 9.77545 12.2924 9.6979C12.2461 9.62045 12.1222 9.57403 11.9366 9.48102Z" fill="white"/>
</svg>
