<svg width="17" height="16" viewBox="0 0 17 16" fill="none" xmlns="http://www.w3.org/2000/svg">
<g clip-path="url(#clip0_272_5410)">
<path d="M16.496 16V15.9993H16.5V10.1313C16.5 7.26065 15.882 5.04932 12.526 5.04932C10.9127 5.04932 9.83003 5.93465 9.38803 6.77399H9.34136V5.31732H6.15936V15.9993H9.4727V10.71C9.4727 9.31732 9.7367 7.97065 11.4614 7.97065C13.1607 7.97065 13.186 9.55999 13.186 10.7993V16H16.496Z" fill="white"/>
<path d="M0.763763 5.31812H4.0811V16.0001H0.763763V5.31812Z" fill="white"/>
<path d="M2.42133 0C1.36067 0 0.5 0.860667 0.5 1.92133C0.5 2.982 1.36067 3.86067 2.42133 3.86067C3.482 3.86067 4.34267 2.982 4.34267 1.92133C4.342 0.860667 3.48133 0 2.42133 0V0Z" fill="white"/>
</g>
<defs>
<clipPath id="clip0_272_5410">
<rect width="16" height="16" fill="white" transform="translate(0.5)"/>
</clipPath>
</defs>
</svg>
