<svg width="17" height="16" viewBox="0 0 17 16" fill="none" xmlns="http://www.w3.org/2000/svg">
<g clip-path="url(#clip0_272_5392)">
<path d="M5.50378 14.4021C11.5081 14.4021 14.7917 9.45627 14.7917 5.1674C14.7917 5.02694 14.7888 4.88712 14.7824 4.74789C15.4214 4.28823 15.9728 3.71911 16.4108 3.06719C15.8259 3.32574 15.1965 3.49976 14.5362 3.57821C15.2101 3.17641 15.7275 2.54074 15.9716 1.78303C15.3308 2.16099 14.6298 2.42742 13.8988 2.57086C13.3031 1.93998 12.455 1.54541 11.516 1.54541C9.71328 1.54541 8.25143 2.99892 8.25143 4.7906C8.25143 5.04532 8.28011 5.29301 8.33612 5.53067C5.62304 5.39493 3.21728 4.10341 1.60722 2.13958C1.31723 2.6349 1.16471 3.19784 1.16521 3.7709C1.16521 4.89696 1.74149 5.89101 2.61788 6.47258C2.09949 6.45684 1.59247 6.31762 1.13947 6.06663C1.13899 6.08026 1.13899 6.09353 1.13899 6.10809C1.13899 7.67992 2.26419 8.9923 3.75786 9.28967C3.47733 9.36564 3.18785 9.40404 2.89709 9.40387C2.68712 9.40387 2.48248 9.38334 2.28359 9.34538C2.69918 10.635 3.90426 11.5734 5.33303 11.5996C4.21575 12.4703 2.80832 12.9889 1.27866 12.9889C1.01844 12.9892 0.758439 12.9741 0.5 12.944C1.94471 13.8647 3.66017 14.4019 5.50394 14.4019" fill="white"/>
</g>
<defs>
<clipPath id="clip0_272_5392">
<rect width="16" height="16" fill="white" transform="translate(0.5)"/>
</clipPath>
</defs>
</svg>
