<svg width="16" height="16" viewBox="0 0 16 16" fill="none" xmlns="http://www.w3.org/2000/svg">
<g clip-path="url(#clip0_272_5406)">
<path d="M8.21733 0C3.83133 0.000666667 1.49999 2.81067 1.49999 5.87467C1.49999 7.29533 2.29399 9.068 3.56533 9.63C3.92799 9.79333 3.87999 9.594 4.19199 8.40067C4.21666 8.30133 4.20399 8.21533 4.12399 8.12267C2.30666 6.02067 3.76933 1.69933 7.95799 1.69933C14.02 1.69933 12.8873 10.0873 9.01266 10.0873C8.01399 10.0873 7.26999 9.30333 7.50533 8.33333C7.79066 7.178 8.34933 5.936 8.34933 5.10333C8.34933 3.00467 5.22266 3.316 5.22266 6.09667C5.22266 6.956 5.52666 7.536 5.52666 7.536C5.52666 7.536 4.52066 11.6 4.33399 12.3593C4.01799 13.6447 4.37666 15.7253 4.40799 15.9047C4.42733 16.0033 4.53799 16.0347 4.59999 15.9533C4.69933 15.8233 5.91533 14.0887 6.25599 12.8347C6.37999 12.378 6.88866 10.5247 6.88866 10.5247C7.22399 11.13 8.19066 11.6367 9.22066 11.6367C12.2847 11.6367 14.4993 8.94333 14.4993 5.60133C14.4887 2.39733 11.7467 0 8.21733 0V0Z" fill="white"/>
</g>
<defs>
<clipPath id="clip0_272_5406">
<rect width="16" height="16" fill="white"/>
</clipPath>
</defs>
</svg>
