<svg width="16" height="16" viewBox="0 0 16 16" fill="none" xmlns="http://www.w3.org/2000/svg">
<g clip-path="url(#clip0_272_5401)">
<path d="M14.2167 6.20525C13.7114 6.20525 13.2667 6.41792 12.9394 6.74925C11.7361 5.90392 10.1134 5.35992 8.3154 5.30192L9.2494 1.03125L12.2234 1.70859C12.2234 2.44725 12.8167 3.05059 13.5447 3.05059C14.2867 3.05059 14.8834 2.43125 14.8834 1.69192C14.8834 0.952585 14.2907 0.333252 13.5454 0.333252C13.0261 0.333252 12.5781 0.651252 12.3547 1.08592L9.07007 0.347252C8.90473 0.302585 8.74273 0.422585 8.69873 0.590585L7.6734 5.29859C5.8894 5.37392 4.28407 5.91725 3.07673 6.76325C2.7494 6.41792 2.2874 6.20525 1.78207 6.20525C-0.0926002 6.20525 -0.7066 8.75792 1.01007 9.63059C0.9494 9.90059 0.922066 10.1886 0.922066 10.4759C0.922066 13.3433 4.1054 15.6666 8.01407 15.6666C11.9394 15.6666 15.1227 13.3433 15.1227 10.4759C15.1227 10.1886 15.0927 9.88725 15.0187 9.61659C16.7007 8.74059 16.0814 6.20659 14.2167 6.20525ZM3.73407 9.81192C3.73407 9.05925 4.3274 8.45325 5.07273 8.45325C5.80073 8.45325 6.39473 9.05525 6.39473 9.81192C6.39473 10.5513 5.8014 11.1539 5.07273 11.1539C4.33073 11.1573 3.73407 10.5513 3.73407 9.81192ZM10.9601 13.0106C9.73273 14.2559 6.2694 14.2559 5.0414 13.0106C4.90607 12.8906 4.90607 12.6786 5.0414 12.5419C5.1594 12.4219 5.36873 12.4219 5.48673 12.5419C6.42407 13.5173 9.5334 13.5339 10.5114 12.5419C10.6294 12.4219 10.8387 12.4219 10.9567 12.5419C11.0947 12.6793 11.0947 12.8913 10.9601 13.0106ZM10.9327 11.1566C10.2047 11.1566 9.6114 10.5546 9.6114 9.81592C9.6114 9.06325 10.2047 8.45725 10.9327 8.45725C11.6747 8.45725 12.2714 9.05925 12.2714 9.81592C12.2681 10.5513 11.6747 11.1566 10.9327 11.1566Z" fill="white"/>
</g>
<defs>
<clipPath id="clip0_272_5401">
<rect width="16" height="16" fill="white"/>
</clipPath>
</defs>
</svg>
