<svg width="68" height="68" viewBox="0 0 68 68" fill="none" xmlns="http://www.w3.org/2000/svg">
<g clip-path="url(#clip0_1707_2042)">
<path d="M56.9054 12.6456H14.7533C13.6357 12.6469 12.5643 13.0914 11.7741 13.8816C10.9838 14.6719 10.5393 15.7433 10.538 16.8608V48.475C10.538 49.0339 10.316 49.57 9.92073 49.9653C9.52548 50.3605 8.9894 50.5826 8.43043 50.5826C7.87146 50.5826 7.33538 50.3605 6.94013 49.9653C6.54487 49.57 6.32282 49.0339 6.32282 48.475V23.1837C6.32282 22.6247 6.10077 22.0886 5.70552 21.6934C5.31027 21.2981 4.77419 21.0761 4.21522 21.0761C3.65624 21.0761 3.12017 21.2981 2.72491 21.6934C2.32966 22.0886 2.10761 22.6247 2.10761 23.1837V48.503C2.1169 50.1745 2.78693 51.7744 3.97148 52.9537C5.15603 54.133 6.75894 54.7959 8.43043 54.7978H54.7978C56.4741 54.7959 58.0812 54.1291 59.2666 52.9437C60.4519 51.7584 61.1187 50.1513 61.1206 48.475V16.8608C61.1193 15.7433 60.6748 14.6719 59.8846 13.8816C59.0944 13.0914 58.0229 12.6469 56.9054 12.6456ZM46.3674 40.0445H25.2913C24.7323 40.0445 24.1962 39.8225 23.801 39.4272C23.4057 39.032 23.1837 38.4959 23.1837 37.9369C23.1837 37.3779 23.4057 36.8419 23.801 36.4466C24.1962 36.0514 24.7323 35.8293 25.2913 35.8293H46.3674C46.9263 35.8293 47.4624 36.0514 47.8577 36.4466C48.2529 36.8419 48.475 37.3779 48.475 37.9369C48.475 38.4959 48.2529 39.032 47.8577 39.4272C47.4624 39.8225 46.9263 40.0445 46.3674 40.0445ZM46.3674 31.6141H25.2913C24.7323 31.6141 24.1962 31.392 23.801 30.9968C23.4057 30.6015 23.1837 30.0655 23.1837 29.5065C23.1837 28.9475 23.4057 28.4114 23.801 28.0162C24.1962 27.6209 24.7323 27.3989 25.2913 27.3989H46.3674C46.9263 27.3989 47.4624 27.6209 47.8577 28.0162C48.2529 28.4114 48.475 28.9475 48.475 29.5065C48.475 30.0655 48.2529 30.6015 47.8577 30.9968C47.4624 31.392 46.9263 31.6141 46.3674 31.6141Z" fill="#0864ED"/>
</g>
<defs>
<clipPath id="clip0_1707_2042">
<rect width="67.4434" height="67.4434" fill="white"/>
</clipPath>
</defs>
</svg>
